<?xml version="1.0" encoding="UTF-8"?>
<!DOCTYPE svg PUBLIC "-//W3C//DTD SVG 1.0//EN" "http://www.w3.org/TR/2001/REC-SVG-20010904/DTD/svg10.dtd">
<!-- Creator: CorelDRAW X8 -->
<svg xmlns="http://www.w3.org/2000/svg" xml:space="preserve" width="472px" height="472px" version="1.0" style="shape-rendering:geometricPrecision; text-rendering:geometricPrecision; image-rendering:optimizeQuality; fill-rule:evenodd; clip-rule:evenodd"
viewBox="0 0 98 98"
 xmlns:xlink="http://www.w3.org/1999/xlink">
 <defs>
  <style type="text/css">
   <![CDATA[
    .fil1 {fill:black}
    .fil4 {fill:#EF589A}
    .fil6 {fill:#EF589A}
    .fil5 {fill:#F397BF}
    .fil2 {fill:#F397BF}
    .fil3 {fill:#FCEBF2}
    .fil0 {fill:#FEF8FA}
   ]]>
  </style>
 </defs>
 <g id="Capa_x0020_1">
  <metadata id="CorelCorpID_0Corel-Layer"/>
  <g id="_2435893146064">
   <path class="fil0" d="M37 37c-1,-7 4,-13 10,-14 7,-1 13,4 14,10 1,7 -4,13 -10,14 -7,1 -13,-4 -14,-10zm-23 8l0 50 20 0 0 -38c-1,0 -2,0 -2,-1 0,-1 0,-2 0,-2 1,-1 4,-1 6,-1 3,0 27,0 28,1 0,0 0,1 0,2 0,0 -1,1 -2,1l0 38 16 0 0 -54c-1,0 -1,-1 -2,-1 -1,-1 -1,-1 -2,-2l-23 -18c-1,-1 -3,-2 -4,-3 -3,2 -14,11 -18,14l-15 12c-1,1 -2,2 -2,2z"/>
   <path class="fil1" d="M37 57l24 0 0 38 -24 0 0 -38zm61 -17l0 1c0,2 -2,4 -4,4 -3,0 -4,-2 -6,-3l0 43c0,2 0,11 -1,12 0,1 0,1 -1,1l-74 0c-2,0 -2,-4 -2,-6l0 -50c-1,0 -1,1 -2,2 -3,2 -8,1 -8,-4 0,-2 1,-3 2,-4l9 -7c11,-9 23,-18 34,-27 2,-2 2,-2 4,-2 2,0 5,3 7,4l40 32c1,1 2,3 2,4zm-49 -37c1,0 2,1 3,2 6,5 42,34 43,34 0,1 0,3 -1,3 -1,0 -2,-1 -3,-2 0,0 -1,-1 -2,-1l-13 -11c-2,-2 -3,-3 -5,-1 0,1 0,1 1,2l5 4c1,1 7,6 8,6l-1 56c-3,0 -6,0 -10,0 -1,0 -9,0 -10,0l0 -38c1,0 2,-1 2,-1 0,-1 0,-2 0,-2 -1,-1 -25,-1 -28,-1 -2,0 -5,0 -6,1 0,0 0,1 0,2 0,1 1,1 2,1l0 38 -20 0 0 -50 0 -6c0,0 3,-3 4,-3l31 -25c1,0 2,1 3,2l12 9c3,3 3,4 5,3 1,-2 0,-2 -1,-3l-14 -11c-1,-1 -4,-4 -5,-4 -1,1 -5,4 -6,5l-36 28c0,1 -1,1 -1,1 -2,1 -3,0 -3,-1 1,-1 22,-18 23,-19l20 -16c1,-1 2,-2 3,-2z"/>
   <path class="fil2" d="M48 64c3,-1 3,2 2,3 -1,0 -2,0 -2,-1 0,0 -1,-1 0,-1 0,-1 0,-1 0,-1zm8 31l0 -15c0,-1 1,0 0,-1 -2,0 -1,-1 -1,-3 0,-2 -1,-3 1,-4l0 0 0 -15 -19 0 0 38 19 0z"/>
   <path class="fil3" d="M14 45c0,0 1,-1 2,-2l15 -12c4,-3 15,-12 18,-14 1,1 3,2 4,3l23 18c1,1 1,1 2,2 1,0 1,1 2,1l0 54 -16 0c1,0 9,0 10,0 4,0 7,0 10,0l1 -56c-1,0 -7,-5 -8,-6l-5 -4c-1,-1 -1,-1 -1,-2 0,-1 -2,-2 -2,-2 -2,1 -2,0 -5,-3l-12 -9c-1,-1 -2,-2 -3,-2l-31 25c-1,0 -4,3 -4,3l0 6z"/>
   <path class="fil1" d="M51 26c4,1 7,5 7,9 0,4 -3,8 -7,8 -3,2 -11,-1 -11,-8 0,-7 8,-10 11,-9zm-14 11c1,6 7,11 14,10 6,-1 11,-7 10,-14 -1,-6 -7,-11 -14,-10 -6,1 -11,7 -10,14z"/>
   <path class="fil4" d="M49 7c1,0 4,3 5,4l14 11c1,1 2,1 1,3 0,0 2,1 2,2 2,-2 3,-1 5,1l13 11c1,0 2,1 2,1 1,1 2,2 3,2 1,0 1,-2 1,-3 -1,0 -37,-29 -43,-34 -1,-1 -2,-2 -3,-2l0 4 0 0z"/>
   <path class="fil2" d="M51 43c3,-3 3,-14 0,-17 -3,-1 -11,2 -11,9 0,7 8,10 11,8z"/>
   <path class="fil5" d="M49 7l0 0 0 -4c-1,0 -2,1 -3,2l-20 16c-1,1 -22,18 -23,19 0,1 1,2 3,1 0,0 1,0 1,-1l36 -28c1,-1 5,-4 6,-5z"/>
   <path class="fil6" d="M56 72c2,0 2,2 2,4 0,2 0,3 -2,3 1,1 0,0 0,1l0 15 5 0 0 -38 -5 0 0 15 0 0z"/>
   <path class="fil4" d="M51 43c4,0 7,-4 7,-8 0,-4 -3,-8 -7,-9 3,3 3,14 0,17z"/>
   <path class="fil1" d="M56 79c2,0 2,-1 2,-3 0,-2 0,-4 -2,-4 -2,1 -1,2 -1,4 0,2 -1,3 1,3z"/>
   <path class="fil1" d="M48 64c0,0 0,0 0,1 -1,0 0,1 0,1 0,1 1,1 2,1 1,-1 1,-4 -2,-3z"/>
  </g>
 </g>
</svg>
