<?xml version="1.0" encoding="UTF-8"?>
<!DOCTYPE svg PUBLIC "-//W3C//DTD SVG 1.0//EN" "http://www.w3.org/TR/2001/REC-SVG-20010904/DTD/svg10.dtd">
<!-- Creator: CorelDRAW X8 -->
<svg xmlns="http://www.w3.org/2000/svg" xml:space="preserve" width="50px" height="50px" version="1.0" style="shape-rendering:geometricPrecision; text-rendering:geometricPrecision; image-rendering:optimizeQuality; fill-rule:evenodd; clip-rule:evenodd"
viewBox="0 0 50 50"
 xmlns:xlink="http://www.w3.org/1999/xlink">
 <defs>
  <style type="text/css">
   <![CDATA[
    .fil0 {fill:white}
   ]]>
  </style>
 </defs>
 <g id="Capa_x0020_1">
  <metadata id="CorelCorpID_0Corel-Layer"/>
  <g id="_2154116554480">
   <path class="fil0" d="M49 14c0,-1 -1,-2 -1,-3l-9 -9c-1,0 -2,-1 -3,-1 -1,-1 -2,-1 -3,-1l-30 0c-1,0 -1,0 -2,1 -1,1 -1,1 -1,2l0 44c0,1 0,1 1,2 1,1 1,1 2,1l44 0c1,0 1,0 2,-1 1,-1 1,-1 1,-2l0 -30c0,-1 0,-2 -1,-3zm-28 -9c0,0 0,0 0,-1 0,0 1,0 1,0l6 0c0,0 1,0 1,0 0,1 0,1 0,1l0 11c0,0 0,0 0,0 0,1 -1,1 -1,1l-6 0c0,0 -1,0 -1,-1 0,0 0,0 0,0l0 -11zm17 41l-26 0 0 -13 26 0 0 13zm8 0l-4 0 0 0 0 -14c0,-1 -1,-1 -1,-2 -1,-1 -2,-1 -2,-1l-28 0c0,0 -1,0 -2,1 0,1 -1,1 -1,2l0 14 -4 0 0 -42 4 0 0 14c0,1 1,1 1,2 1,1 2,1 2,1l19 0c1,0 2,0 2,-1 1,-1 1,-1 1,-2l0 -14c1,0 1,0 2,0 0,1 0,1 1,1l9 9c0,1 0,1 1,1 0,1 0,1 0,2l0 29 0 0z"/>
  </g>
 </g>
</svg>
